<svg width="22" height="22" viewBox="0 0 24 24" fill="none" xmlns="http://www.w3.org/2000/svg" color="#FF4700" size="22"><path clip-rule="evenodd" d="M12.8 2.996a1 1 0 0 1 .942.663l.508 1.415c.08.223.237.41.442.528l1.508.87a1 1 0 0 0 .677.119l1.48-.267a1 1 0 0 1 1.046.484l.8 1.38a1 1 0 0 1-.1 1.147l-.971 1.148a1 1 0 0 0-.237.647v1.74a1 1 0 0 0 .237.647l.971 1.148a1 1 0 0 1 .1 1.147l-.8 1.38a1 1 0 0 1-1.044.484l-1.48-.267c-.234-.042-.474 0-.678.118l-1.508.87a1.006 1.006 0 0 0-.442.529l-.508 1.416a1 1 0 0 1-.943.662h-1.6a1 1 0 0 1-.942-.663l-.508-1.415a1.01 1.01 0 0 0-.441-.528l-1.509-.87c-.204-.119-.444-.16-.677-.119l-1.48.267a1 1 0 0 1-1.046-.484l-.8-1.38a1 1 0 0 1 .1-1.147l.971-1.148a1 1 0 0 0 .237-.647v-1.74a1 1 0 0 0-.237-.647l-.961-1.148a1 1 0 0 1-.1-1.147l.8-1.38a1 1 0 0 1 1.044-.484l1.481.267a1 1 0 0 0 .677-.118l1.509-.87a1.01 1.01 0 0 0 .441-.529l.508-1.415a1 1 0 0 1 .933-.663h1.6Z" stroke="#FF4700" stroke-width="2" stroke-linecap="round" stroke-linejoin="round"></path><circle cx="12" cy="12" r="2.751" stroke="#FF4700" stroke-width="2" stroke-linecap="round" stroke-linejoin="round"></circle></svg>